<svg xmlns="http://www.w3.org/2000/svg" viewBox="0 -0.5 21 7" shape-rendering="crispEdges">
<path stroke="#000000" d="M0 0h21M0 1h1M5 1h1M12 1h1M17 1h1M20 1h1M0 2h1M3 2h1M5 2h1M8 2h1M10 2h1M12 2h1M15 2h1M17 2h1M19 2h2M0 3h1M3 3h1M5 3h1M8 3h1M10 3h1M12 3h1M15 3h1M17 3h1M20 3h1M0 4h1M5 4h1M8 4h1M10 4h1M12 4h1M17 4h1M20 4h1M0 5h13M15 5h6M12 6h4" />
<path stroke="#ffffff" d="M1 1h4M6 1h6M13 1h4M18 1h2M1 2h2M4 2h1M6 2h2M9 2h1M11 2h1M13 2h2M16 2h1M18 2h1M1 3h2M4 3h1M6 3h2M9 3h1M11 3h1M13 3h2M16 3h1M18 3h2M1 4h4M6 4h2M9 4h1M11 4h1M13 4h4M18 4h2M13 5h2" />
</svg>